<svg xmlns="http://www.w3.org/2000/svg" xmlns:xlink="http://www.w3.org/1999/xlink" width="800" zoomAndPan="magnify" viewBox="0 0 600 359.999987" height="480" preserveAspectRatio="xMidYMid meet" version="1.0"><defs><g/><clipPath id="f921a4d721"><path d="M 90.011719 119.4375 L 211.140625 119.4375 L 211.140625 240.5625 L 90.011719 240.5625 Z M 90.011719 119.4375 " clip-rule="nonzero"/></clipPath><clipPath id="ed864d5fea"><path d="M 150.578125 119.4375 C 117.128906 119.4375 90.011719 146.550781 90.011719 180 C 90.011719 213.449219 117.128906 240.5625 150.578125 240.5625 C 184.023438 240.5625 211.140625 213.449219 211.140625 180 C 211.140625 146.550781 184.023438 119.4375 150.578125 119.4375 Z M 150.578125 119.4375 " clip-rule="nonzero"/></clipPath><clipPath id="8a7b2d28db"><path d="M 124 137.734375 L 176 137.734375 L 176 202 L 124 202 Z M 124 137.734375 " clip-rule="nonzero"/></clipPath><clipPath id="268bc0a7c8"><path d="M 106.800781 154 L 194.550781 154 L 194.550781 222.484375 L 106.800781 222.484375 Z M 106.800781 154 " clip-rule="nonzero"/></clipPath></defs><rect x="-60" width="720" fill="#ffffff" y="-35.999999" height="431.999984" fill-opacity="1"/><rect x="-60" width="720" fill="#ffffff" y="-35.999999" height="431.999984" fill-opacity="1"/><g clip-path="url(#f921a4d721)"><g clip-path="url(#ed864d5fea)"><path fill="#000000" d="M 90.011719 119.4375 L 211.140625 119.4375 L 211.140625 240.5625 L 90.011719 240.5625 Z M 90.011719 119.4375 " fill-opacity="1" fill-rule="nonzero"/></g></g><g clip-path="url(#8a7b2d28db)"><path fill="#00afef" d="M 175.828125 180.726562 C 170.277344 164.910156 157.117188 146.566406 151.214844 137.75 C 143.628906 149.078125 124.054688 176.148438 124.054688 193.367188 L 124.054688 195.085938 C 124.054688 197.222656 124.316406 199.304688 124.804688 201.3125 C 125.625 201.484375 126.445312 201.613281 127.246094 201.703125 C 125.546875 194.742188 126.707031 186.425781 130.722656 176.75 C 128.210938 186.457031 127.390625 194.808594 128.253906 201.800781 C 128.765625 201.84375 129.269531 201.875 129.75 201.890625 C 138.585938 202.222656 148.167969 199.378906 156.046875 195.554688 C 163.21875 192.074219 170.617188 186.984375 175.820312 180.714844 Z M 175.828125 180.726562 " fill-opacity="1" fill-rule="evenodd"/></g><g clip-path="url(#268bc0a7c8)"><path fill="#00afef" d="M 178.367188 194.652344 C 178.105469 194.867188 177.835938 195.085938 177.5625 195.304688 C 177.835938 195.085938 178.105469 194.867188 178.367188 194.652344 Z M 177.535156 195.335938 C 177.261719 195.554688 176.984375 195.769531 176.707031 195.988281 C 176.984375 195.769531 177.261719 195.554688 177.535156 195.335938 Z M 176.691406 195.996094 C 176.414062 196.214844 176.128906 196.433594 175.84375 196.652344 C 176.128906 196.433594 176.414062 196.214844 176.691406 195.996094 Z M 175.828125 196.65625 C 175.542969 196.875 175.253906 197.085938 174.960938 197.304688 C 175.253906 197.09375 175.542969 196.875 175.828125 196.65625 Z M 174.941406 197.320312 C 174.652344 197.53125 174.359375 197.742188 174.066406 197.949219 C 174.359375 197.742188 174.652344 197.53125 174.941406 197.320312 Z M 174.054688 197.964844 C 173.757812 198.175781 173.457031 198.386719 173.164062 198.597656 C 173.464844 198.386719 173.757812 198.175781 174.054688 197.964844 Z M 173.121094 198.621094 C 172.519531 199.042969 171.902344 199.453125 171.277344 199.859375 C 171.902344 199.453125 172.519531 199.035156 173.121094 198.621094 Z M 171.277344 199.859375 L 171.25 199.882812 C 170.933594 200.085938 170.625 200.289062 170.300781 200.492188 C 169.984375 200.695312 169.671875 200.890625 169.347656 201.09375 C 169.671875 200.898438 169.984375 200.695312 170.300781 200.492188 Z M 169.300781 201.125 C 168.976562 201.320312 168.664062 201.523438 168.332031 201.710938 C 168.65625 201.515625 168.976562 201.320312 169.300781 201.125 Z M 168.324219 201.71875 C 168 201.914062 167.671875 202.109375 167.339844 202.304688 C 167.671875 202.109375 168 201.914062 168.324219 201.71875 Z M 167.308594 202.320312 C 166.980469 202.515625 166.648438 202.703125 166.308594 202.898438 C 166.648438 202.710938 166.980469 202.515625 167.308594 202.320312 Z M 166.285156 202.90625 C 165.949219 203.09375 165.609375 203.28125 165.273438 203.46875 C 165.609375 203.28125 165.949219 203.09375 166.285156 202.90625 Z M 165.257812 203.484375 C 164.910156 203.671875 164.574219 203.859375 164.21875 204.046875 C 164.566406 203.859375 164.910156 203.679688 165.257812 203.484375 Z M 164.203125 204.054688 C 163.867188 204.234375 163.519531 204.417969 163.175781 204.597656 C 163.519531 204.417969 163.867188 204.234375 164.203125 204.054688 Z M 163.136719 204.621094 C 162.792969 204.800781 162.445312 204.972656 162.101562 205.144531 C 162.445312 204.972656 162.800781 204.792969 163.136719 204.621094 Z M 162.046875 205.175781 C 161.695312 205.355469 161.339844 205.527344 160.980469 205.703125 C 160.625 205.875 160.273438 206.039062 159.917969 206.207031 C 160.273438 206.039062 160.625 205.867188 160.980469 205.703125 C 161.339844 205.527344 161.695312 205.355469 162.046875 205.175781 Z M 159.820312 206.25 C 159.492188 206.410156 159.160156 206.558594 158.828125 206.710938 C 159.160156 206.558594 159.492188 206.410156 159.820312 206.25 Z M 158.730469 206.753906 C 158.386719 206.914062 158.039062 207.0625 157.695312 207.210938 C 158.039062 207.0625 158.386719 206.90625 158.730469 206.753906 Z M 157.664062 207.226562 C 157.3125 207.386719 156.957031 207.535156 156.597656 207.6875 C 156.949219 207.535156 157.304688 207.386719 157.664062 207.226562 Z M 156.535156 207.714844 C 156.199219 207.859375 155.867188 207.996094 155.527344 208.136719 C 155.867188 208.003906 156.199219 207.859375 156.535156 207.714844 Z M 155.429688 208.175781 C 155.09375 208.308594 154.761719 208.445312 154.425781 208.582031 C 154.761719 208.445312 155.09375 208.308594 155.429688 208.175781 Z M 154.363281 208.605469 C 154.019531 208.738281 153.664062 208.875 153.320312 209.007812 C 153.664062 208.875 154.019531 208.738281 154.363281 208.605469 Z M 153.242188 209.03125 C 152.914062 209.160156 152.582031 209.28125 152.25 209.402344 C 152.582031 209.28125 152.914062 209.160156 153.242188 209.03125 Z M 152.144531 209.4375 C 151.816406 209.558594 151.492188 209.671875 151.160156 209.792969 C 151.484375 209.679688 151.816406 209.558594 152.144531 209.4375 Z M 151.078125 209.820312 C 150.734375 209.941406 150.386719 210.0625 150.042969 210.175781 C 150.386719 210.0625 150.734375 209.941406 151.078125 209.820312 Z M 149.996094 210.191406 C 149.664062 210.300781 149.328125 210.40625 148.996094 210.519531 C 149.328125 210.414062 149.664062 210.300781 149.996094 210.191406 Z M 148.882812 210.550781 C 148.558594 210.65625 148.238281 210.753906 147.914062 210.851562 C 148.238281 210.753906 148.558594 210.648438 148.882812 210.550781 Z M 147.847656 210.875 C 147.5 210.980469 147.160156 211.085938 146.816406 211.183594 C 147.160156 211.085938 147.5 210.980469 147.847656 210.875 Z M 146.785156 211.191406 C 146.457031 211.289062 146.125 211.378906 145.785156 211.476562 C 146.117188 211.386719 146.449219 211.289062 146.785156 211.191406 Z M 145.667969 211.503906 C 145.351562 211.589844 145.042969 211.679688 144.726562 211.753906 C 145.035156 211.671875 145.351562 211.589844 145.667969 211.503906 Z M 144.628906 211.785156 C 144.296875 211.867188 143.972656 211.949219 143.652344 212.03125 C 143.972656 211.949219 144.304688 211.867188 144.628906 211.785156 Z M 143.605469 212.046875 C 143.277344 212.128906 142.945312 212.203125 142.605469 212.289062 C 142.9375 212.210938 143.269531 212.128906 143.605469 212.046875 Z M 142.515625 212.308594 C 142.199219 212.386719 141.882812 212.453125 141.570312 212.519531 C 141.882812 212.453125 142.199219 212.386719 142.515625 212.308594 Z M 141.484375 212.542969 C 141.164062 212.609375 140.847656 212.679688 140.523438 212.746094 C 140.839844 212.679688 141.164062 212.617188 141.484375 212.542969 Z M 140.472656 212.753906 C 140.140625 212.820312 139.816406 212.882812 139.492188 212.941406 C 139.816406 212.882812 140.148438 212.820312 140.472656 212.753906 Z M 139.410156 212.957031 C 139.101562 213.015625 138.800781 213.070312 138.5 213.121094 C 138.800781 213.070312 139.109375 213.015625 139.410156 212.957031 Z M 138.390625 213.136719 C 138.082031 213.1875 137.765625 213.242188 137.457031 213.289062 C 137.765625 213.242188 138.074219 213.1875 138.390625 213.136719 Z M 137.410156 213.292969 C 137.089844 213.347656 136.773438 213.390625 136.449219 213.4375 C 136.765625 213.390625 137.089844 213.347656 137.410156 213.292969 Z M 136.382812 213.445312 C 136.082031 213.488281 135.78125 213.527344 135.488281 213.566406 C 135.789062 213.527344 136.082031 213.488281 136.382812 213.445312 Z M 135.382812 213.574219 C 135.082031 213.609375 134.789062 213.648438 134.488281 213.679688 C 134.78125 213.648438 135.082031 213.609375 135.382812 213.574219 Z M 134.425781 213.6875 C 134.113281 213.722656 133.804688 213.753906 133.488281 213.777344 C 133.796875 213.746094 134.113281 213.714844 134.425781 213.6875 Z M 133.449219 213.785156 C 133.148438 213.8125 132.847656 213.835938 132.546875 213.859375 C 132.847656 213.835938 133.148438 213.8125 133.449219 213.785156 Z M 132.472656 213.867188 C 132.261719 213.882812 132.050781 213.894531 131.847656 213.910156 C 134.148438 216.273438 136.863281 218.234375 139.855469 219.664062 C 143.335938 221.324219 147.199219 222.253906 151.222656 222.253906 C 155.890625 222.253906 160.332031 221 164.226562 218.820312 C 172.585938 214.128906 178.382812 205.144531 178.382812 195.09375 L 178.382812 194.652344 C 190.953125 184.277344 197.230469 172.15625 193.101562 163.648438 C 190.101562 157.460938 182.1875 154.410156 171.957031 154.535156 C 177.511719 155.625 181.722656 158.210938 183.683594 162.25 C 188.734375 172.652344 176.953125 188.792969 157.394531 198.28125 C 137.824219 207.777344 117.867188 207.03125 112.8125 196.628906 C 110.851562 192.589844 111.429688 187.691406 114.007812 182.644531 C 107.574219 190.597656 105.070312 198.703125 108.078125 204.890625 C 111.394531 211.722656 120.691406 214.730469 132.480469 213.859375 Z M 132.472656 213.867188 " fill-opacity="1" fill-rule="evenodd"/></g><path fill="#00afef" d="M 131.839844 213.910156 C 151.71875 213.023438 167.183594 207.640625 178.238281 197.769531 C 178.332031 196.890625 178.375 195.996094 178.375 195.09375 L 178.375 194.652344 C 173.457031 198.710938 167.574219 202.5 160.972656 205.703125 C 150.808594 210.632812 140.605469 213.363281 131.839844 213.910156 Z M 131.839844 213.910156 " fill-opacity="1" fill-rule="evenodd"/><g fill="#00afef" fill-opacity="1"><g transform="translate(221.708943, 187.226429)"><g><path d="M 25.578125 -12.609375 L 20.984375 -12.609375 L 20.984375 0 L 4.078125 0 L 4.078125 -50.15625 L 28.21875 -50.15625 C 32.851562 -50.15625 36.890625 -49.390625 40.328125 -47.859375 C 43.765625 -46.328125 46.414062 -44.128906 48.28125 -41.265625 C 50.144531 -38.398438 51.078125 -35.054688 51.078125 -31.234375 C 51.078125 -27.648438 50.265625 -24.519531 48.640625 -21.84375 C 47.015625 -19.175781 44.675781 -17.050781 41.625 -15.46875 L 52.15625 0 L 34.09375 0 Z M 34.03125 -31.234375 C 34.03125 -33.097656 33.457031 -34.539062 32.3125 -35.5625 C 31.164062 -36.59375 29.445312 -37.109375 27.15625 -37.109375 L 20.984375 -37.109375 L 20.984375 -25.359375 L 27.15625 -25.359375 C 29.445312 -25.359375 31.164062 -25.867188 32.3125 -26.890625 C 33.457031 -27.921875 34.03125 -29.367188 34.03125 -31.234375 Z M 34.03125 -31.234375 "/></g></g></g><g fill="#00afef" fill-opacity="1"><g transform="translate(275.081875, 187.226429)"><g><path d="M 45.28125 -19.625 C 45.28125 -19.382812 45.207031 -18.117188 45.0625 -15.828125 L 17.84375 -15.828125 C 18.414062 -14.347656 19.367188 -13.210938 20.703125 -12.421875 C 22.035156 -11.640625 23.707031 -11.25 25.71875 -11.25 C 27.4375 -11.25 28.878906 -11.460938 30.046875 -11.890625 C 31.222656 -12.316406 32.503906 -13.054688 33.890625 -14.109375 L 42.34375 -5.59375 C 38.519531 -1.382812 32.8125 0.71875 25.21875 0.71875 C 20.488281 0.71875 16.332031 -0.148438 12.75 -1.890625 C 9.164062 -3.640625 6.394531 -6.066406 4.4375 -9.171875 C 2.476562 -12.273438 1.5 -15.757812 1.5 -19.625 C 1.5 -23.539062 2.46875 -27.039062 4.40625 -30.125 C 6.34375 -33.207031 8.992188 -35.609375 12.359375 -37.328125 C 15.722656 -39.046875 19.507812 -39.90625 23.71875 -39.90625 C 27.675781 -39.90625 31.289062 -39.113281 34.5625 -37.53125 C 37.832031 -35.957031 40.4375 -33.640625 42.375 -30.578125 C 44.3125 -27.523438 45.28125 -23.875 45.28125 -19.625 Z M 23.859375 -28.875 C 22.179688 -28.875 20.789062 -28.421875 19.6875 -27.515625 C 18.59375 -26.609375 17.878906 -25.316406 17.546875 -23.640625 L 30.15625 -23.640625 C 29.820312 -25.265625 29.101562 -26.539062 28 -27.46875 C 26.90625 -28.40625 25.523438 -28.875 23.859375 -28.875 Z M 23.859375 -28.875 "/></g></g></g><g fill="#000000" fill-opacity="1"><g transform="translate(321.878778, 187.226429)"><g><path d="M 20.984375 -37.390625 L 20.984375 -28.796875 L 41.90625 -28.796875 L 41.90625 -16.046875 L 20.984375 -16.046875 L 20.984375 0 L 4.078125 0 L 4.078125 -50.15625 L 44.84375 -50.15625 L 44.84375 -37.390625 Z M 20.984375 -37.390625 "/></g></g></g><g fill="#000000" fill-opacity="1"><g transform="translate(368.015916, 187.226429)"><g><path d="M 3.578125 -53.15625 L 19.765625 -53.15625 L 19.765625 0 L 3.578125 0 Z M 3.578125 -53.15625 "/></g></g></g><g fill="#000000" fill-opacity="1"><g transform="translate(391.371057, 187.226429)"><g><path d="M 24.28125 0.71875 C 19.9375 0.71875 16.03125 -0.148438 12.5625 -1.890625 C 9.101562 -3.640625 6.394531 -6.050781 4.4375 -9.125 C 2.476562 -12.207031 1.5 -15.707031 1.5 -19.625 C 1.5 -23.539062 2.476562 -27.039062 4.4375 -30.125 C 6.394531 -33.207031 9.101562 -35.609375 12.5625 -37.328125 C 16.03125 -39.046875 19.9375 -39.90625 24.28125 -39.90625 C 28.675781 -39.90625 32.601562 -39.046875 36.0625 -37.328125 C 39.53125 -35.609375 42.226562 -33.207031 44.15625 -30.125 C 46.09375 -27.039062 47.0625 -23.539062 47.0625 -19.625 C 47.0625 -15.707031 46.09375 -12.207031 44.15625 -9.125 C 42.226562 -6.050781 39.53125 -3.640625 36.0625 -1.890625 C 32.601562 -0.148438 28.675781 0.71875 24.28125 0.71875 Z M 24.28125 -11.890625 C 26.144531 -11.890625 27.671875 -12.566406 28.859375 -13.921875 C 30.054688 -15.285156 30.65625 -17.1875 30.65625 -19.625 C 30.65625 -22.0625 30.054688 -23.945312 28.859375 -25.28125 C 27.671875 -26.625 26.144531 -27.296875 24.28125 -27.296875 C 22.425781 -27.296875 20.898438 -26.625 19.703125 -25.28125 C 18.503906 -23.945312 17.90625 -22.0625 17.90625 -19.625 C 17.90625 -17.1875 18.503906 -15.285156 19.703125 -13.921875 C 20.898438 -12.566406 22.425781 -11.890625 24.28125 -11.890625 Z M 24.28125 -11.890625 "/></g></g></g><g fill="#000000" fill-opacity="1"><g transform="translate(439.944016, 187.226429)"><g><path d="M 70.421875 -39.1875 L 56.8125 0 L 41.046875 0 L 35.109375 -18.125 L 28.9375 0 L 13.1875 0 L -0.4375 -39.1875 L 14.90625 -39.1875 L 21.640625 -18.484375 L 28.65625 -39.1875 L 42.40625 -39.1875 L 49.21875 -18.265625 L 56.234375 -39.1875 Z M 70.421875 -39.1875 "/></g></g></g><g fill="#000000" fill-opacity="1"><g transform="translate(232.618646, 214.424968)"><g><path d="M 4 0.171875 C 3.28125 0.171875 2.582031 0.0820312 1.90625 -0.09375 C 1.226562 -0.269531 0.679688 -0.503906 0.265625 -0.796875 L 1.09375 -2.640625 C 1.488281 -2.378906 1.945312 -2.164062 2.46875 -2 C 2.988281 -1.84375 3.5 -1.765625 4 -1.765625 C 4.96875 -1.765625 5.453125 -2.003906 5.453125 -2.484375 C 5.453125 -2.742188 5.3125 -2.929688 5.03125 -3.046875 C 4.757812 -3.171875 4.320312 -3.300781 3.71875 -3.4375 C 3.050781 -3.582031 2.492188 -3.734375 2.046875 -3.890625 C 1.597656 -4.054688 1.210938 -4.320312 0.890625 -4.6875 C 0.578125 -5.050781 0.421875 -5.539062 0.421875 -6.15625 C 0.421875 -6.695312 0.566406 -7.179688 0.859375 -7.609375 C 1.148438 -8.046875 1.585938 -8.390625 2.171875 -8.640625 C 2.765625 -8.898438 3.484375 -9.03125 4.328125 -9.03125 C 4.910156 -9.03125 5.484375 -8.960938 6.046875 -8.828125 C 6.617188 -8.703125 7.117188 -8.507812 7.546875 -8.25 L 6.78125 -6.390625 C 5.9375 -6.847656 5.117188 -7.078125 4.328125 -7.078125 C 3.828125 -7.078125 3.460938 -7.003906 3.234375 -6.859375 C 3.003906 -6.710938 2.890625 -6.519531 2.890625 -6.28125 C 2.890625 -6.039062 3.023438 -5.863281 3.296875 -5.75 C 3.566406 -5.632812 4 -5.515625 4.59375 -5.390625 C 5.269531 -5.242188 5.828125 -5.085938 6.265625 -4.921875 C 6.710938 -4.753906 7.097656 -4.492188 7.421875 -4.140625 C 7.742188 -3.785156 7.90625 -3.300781 7.90625 -2.6875 C 7.90625 -2.15625 7.757812 -1.671875 7.46875 -1.234375 C 7.175781 -0.804688 6.734375 -0.460938 6.140625 -0.203125 C 5.554688 0.046875 4.84375 0.171875 4 0.171875 Z M 4 0.171875 "/></g></g></g><g fill="#000000" fill-opacity="1"><g transform="translate(245.270044, 214.424968)"><g><path d="M 8.875 0 L 8.84375 -4.6875 L 6.578125 -0.875 L 5.453125 -0.875 L 3.203125 -4.5625 L 3.203125 0 L 0.890625 0 L 0.890625 -8.84375 L 2.9375 -8.84375 L 6.0625 -3.734375 L 9.09375 -8.84375 L 11.15625 -8.84375 L 11.171875 0 Z M 8.875 0 "/></g></g></g><g fill="#000000" fill-opacity="1"><g transform="translate(261.801545, 214.424968)"><g><path d="M 6.8125 -1.71875 L 3.078125 -1.71875 L 2.375 0 L -0.171875 0 L 3.734375 -8.84375 L 6.1875 -8.84375 L 10.109375 0 L 7.515625 0 Z M 6.078125 -3.5625 L 4.9375 -6.390625 L 3.8125 -3.5625 Z M 6.078125 -3.5625 "/></g></g></g><g fill="#000000" fill-opacity="1"><g transform="translate(276.209737, 214.424968)"><g><path d="M 4.75 -2.34375 L 3.390625 -2.34375 L 3.390625 0 L 0.890625 0 L 0.890625 -8.84375 L 4.9375 -8.84375 C 5.726562 -8.84375 6.421875 -8.707031 7.015625 -8.4375 C 7.609375 -8.175781 8.0625 -7.800781 8.375 -7.3125 C 8.695312 -6.820312 8.859375 -6.242188 8.859375 -5.578125 C 8.859375 -4.929688 8.707031 -4.367188 8.40625 -3.890625 C 8.113281 -3.421875 7.6875 -3.050781 7.125 -2.78125 L 9.03125 0 L 6.359375 0 Z M 6.328125 -5.578125 C 6.328125 -5.984375 6.195312 -6.300781 5.9375 -6.53125 C 5.675781 -6.757812 5.289062 -6.875 4.78125 -6.875 L 3.390625 -6.875 L 3.390625 -4.28125 L 4.78125 -4.28125 C 5.289062 -4.28125 5.675781 -4.390625 5.9375 -4.609375 C 6.195312 -4.835938 6.328125 -5.160156 6.328125 -5.578125 Z M 6.328125 -5.578125 "/></g></g></g><g fill="#000000" fill-opacity="1"><g transform="translate(290.036548, 214.424968)"><g><path d="M 2.765625 -6.859375 L 0.046875 -6.859375 L 0.046875 -8.84375 L 7.96875 -8.84375 L 7.96875 -6.859375 L 5.265625 -6.859375 L 5.265625 0 L 2.765625 0 Z M 2.765625 -6.859375 "/></g></g></g><g fill="#000000" fill-opacity="1"><g transform="translate(302.536281, 214.424968)"><g><path d="M 7.984375 -1.9375 L 7.984375 0 L 0.890625 0 L 0.890625 -8.84375 L 7.828125 -8.84375 L 7.828125 -6.921875 L 3.359375 -6.921875 L 3.359375 -5.421875 L 7.296875 -5.421875 L 7.296875 -3.546875 L 3.359375 -3.546875 L 3.359375 -1.9375 Z M 7.984375 -1.9375 "/></g></g></g><g fill="#000000" fill-opacity="1"><g transform="translate(315.50365, 214.424968)"><g><path d="M 4.75 -2.34375 L 3.390625 -2.34375 L 3.390625 0 L 0.890625 0 L 0.890625 -8.84375 L 4.9375 -8.84375 C 5.726562 -8.84375 6.421875 -8.707031 7.015625 -8.4375 C 7.609375 -8.175781 8.0625 -7.800781 8.375 -7.3125 C 8.695312 -6.820312 8.859375 -6.242188 8.859375 -5.578125 C 8.859375 -4.929688 8.707031 -4.367188 8.40625 -3.890625 C 8.113281 -3.421875 7.6875 -3.050781 7.125 -2.78125 L 9.03125 0 L 6.359375 0 Z M 6.328125 -5.578125 C 6.328125 -5.984375 6.195312 -6.300781 5.9375 -6.53125 C 5.675781 -6.757812 5.289062 -6.875 4.78125 -6.875 L 3.390625 -6.875 L 3.390625 -4.28125 L 4.78125 -4.28125 C 5.289062 -4.28125 5.675781 -4.390625 5.9375 -4.609375 C 6.195312 -4.835938 6.328125 -5.160156 6.328125 -5.578125 Z M 6.328125 -5.578125 "/></g></g></g><g fill="#000000" fill-opacity="1"><g transform="translate(329.330461, 214.424968)"><g/></g></g><g fill="#000000" fill-opacity="1"><g transform="translate(337.482446, 214.424968)"><g><path d="M 7.6875 -4.609375 C 8.1875 -4.429688 8.578125 -4.15625 8.859375 -3.78125 C 9.148438 -3.40625 9.296875 -2.953125 9.296875 -2.421875 C 9.296875 -1.648438 8.984375 -1.050781 8.359375 -0.625 C 7.742188 -0.207031 6.84375 0 5.65625 0 L 0.890625 0 L 0.890625 -8.84375 L 5.40625 -8.84375 C 6.539062 -8.84375 7.398438 -8.632812 7.984375 -8.21875 C 8.578125 -7.800781 8.875 -7.238281 8.875 -6.53125 C 8.875 -6.113281 8.769531 -5.738281 8.5625 -5.40625 C 8.351562 -5.070312 8.0625 -4.804688 7.6875 -4.609375 Z M 3.359375 -7.046875 L 3.359375 -5.328125 L 5.078125 -5.328125 C 5.921875 -5.328125 6.34375 -5.613281 6.34375 -6.1875 C 6.34375 -6.757812 5.921875 -7.046875 5.078125 -7.046875 Z M 5.453125 -1.8125 C 6.335938 -1.8125 6.78125 -2.109375 6.78125 -2.703125 C 6.78125 -3.304688 6.335938 -3.609375 5.453125 -3.609375 L 3.359375 -3.609375 L 3.359375 -1.8125 Z M 5.453125 -1.8125 "/></g></g></g><g fill="#000000" fill-opacity="1"><g transform="translate(351.675771, 214.424968)"><g><path d="M 7.984375 -1.9375 L 7.984375 0 L 0.890625 0 L 0.890625 -8.84375 L 7.828125 -8.84375 L 7.828125 -6.921875 L 3.359375 -6.921875 L 3.359375 -5.421875 L 7.296875 -5.421875 L 7.296875 -3.546875 L 3.359375 -3.546875 L 3.359375 -1.9375 Z M 7.984375 -1.9375 "/></g></g></g><g fill="#000000" fill-opacity="1"><g transform="translate(364.64314, 214.424968)"><g><path d="M 2.765625 -6.859375 L 0.046875 -6.859375 L 0.046875 -8.84375 L 7.96875 -8.84375 L 7.96875 -6.859375 L 5.265625 -6.859375 L 5.265625 0 L 2.765625 0 Z M 2.765625 -6.859375 "/></g></g></g><g fill="#000000" fill-opacity="1"><g transform="translate(377.142869, 214.424968)"><g><path d="M 2.765625 -6.859375 L 0.046875 -6.859375 L 0.046875 -8.84375 L 7.96875 -8.84375 L 7.96875 -6.859375 L 5.265625 -6.859375 L 5.265625 0 L 2.765625 0 Z M 2.765625 -6.859375 "/></g></g></g><g fill="#000000" fill-opacity="1"><g transform="translate(389.642606, 214.424968)"><g><path d="M 7.984375 -1.9375 L 7.984375 0 L 0.890625 0 L 0.890625 -8.84375 L 7.828125 -8.84375 L 7.828125 -6.921875 L 3.359375 -6.921875 L 3.359375 -5.421875 L 7.296875 -5.421875 L 7.296875 -3.546875 L 3.359375 -3.546875 L 3.359375 -1.9375 Z M 7.984375 -1.9375 "/></g></g></g><g fill="#000000" fill-opacity="1"><g transform="translate(402.609976, 214.424968)"><g><path d="M 4.75 -2.34375 L 3.390625 -2.34375 L 3.390625 0 L 0.890625 0 L 0.890625 -8.84375 L 4.9375 -8.84375 C 5.726562 -8.84375 6.421875 -8.707031 7.015625 -8.4375 C 7.609375 -8.175781 8.0625 -7.800781 8.375 -7.3125 C 8.695312 -6.820312 8.859375 -6.242188 8.859375 -5.578125 C 8.859375 -4.929688 8.707031 -4.367188 8.40625 -3.890625 C 8.113281 -3.421875 7.6875 -3.050781 7.125 -2.78125 L 9.03125 0 L 6.359375 0 Z M 6.328125 -5.578125 C 6.328125 -5.984375 6.195312 -6.300781 5.9375 -6.53125 C 5.675781 -6.757812 5.289062 -6.875 4.78125 -6.875 L 3.390625 -6.875 L 3.390625 -4.28125 L 4.78125 -4.28125 C 5.289062 -4.28125 5.675781 -4.390625 5.9375 -4.609375 C 6.195312 -4.835938 6.328125 -5.160156 6.328125 -5.578125 Z M 6.328125 -5.578125 "/></g></g></g><g fill="#000000" fill-opacity="1"><g transform="translate(416.436787, 214.424968)"><g/></g></g><g fill="#000000" fill-opacity="1"><g transform="translate(424.588772, 214.424968)"><g><path d="M 3.390625 -6.921875 L 3.390625 -4.96875 L 7.296875 -4.96875 L 7.296875 -3.03125 L 3.390625 -3.03125 L 3.390625 0 L 0.890625 0 L 0.890625 -8.84375 L 7.828125 -8.84375 L 7.828125 -6.921875 Z M 3.390625 -6.921875 "/></g></g></g><g fill="#000000" fill-opacity="1"><g transform="translate(437.176979, 214.424968)"><g><path d="M 6.8125 -1.71875 L 3.078125 -1.71875 L 2.375 0 L -0.171875 0 L 3.734375 -8.84375 L 6.1875 -8.84375 L 10.109375 0 L 7.515625 0 Z M 6.078125 -3.5625 L 4.9375 -6.390625 L 3.8125 -3.5625 Z M 6.078125 -3.5625 "/></g></g></g><g fill="#000000" fill-opacity="1"><g transform="translate(451.585173, 214.424968)"><g><path d="M 4 0.171875 C 3.28125 0.171875 2.582031 0.0820312 1.90625 -0.09375 C 1.226562 -0.269531 0.679688 -0.503906 0.265625 -0.796875 L 1.09375 -2.640625 C 1.488281 -2.378906 1.945312 -2.164062 2.46875 -2 C 2.988281 -1.84375 3.5 -1.765625 4 -1.765625 C 4.96875 -1.765625 5.453125 -2.003906 5.453125 -2.484375 C 5.453125 -2.742188 5.3125 -2.929688 5.03125 -3.046875 C 4.757812 -3.171875 4.320312 -3.300781 3.71875 -3.4375 C 3.050781 -3.582031 2.492188 -3.734375 2.046875 -3.890625 C 1.597656 -4.054688 1.210938 -4.320312 0.890625 -4.6875 C 0.578125 -5.050781 0.421875 -5.539062 0.421875 -6.15625 C 0.421875 -6.695312 0.566406 -7.179688 0.859375 -7.609375 C 1.148438 -8.046875 1.585938 -8.390625 2.171875 -8.640625 C 2.765625 -8.898438 3.484375 -9.03125 4.328125 -9.03125 C 4.910156 -9.03125 5.484375 -8.960938 6.046875 -8.828125 C 6.617188 -8.703125 7.117188 -8.507812 7.546875 -8.25 L 6.78125 -6.390625 C 5.9375 -6.847656 5.117188 -7.078125 4.328125 -7.078125 C 3.828125 -7.078125 3.460938 -7.003906 3.234375 -6.859375 C 3.003906 -6.710938 2.890625 -6.519531 2.890625 -6.28125 C 2.890625 -6.039062 3.023438 -5.863281 3.296875 -5.75 C 3.566406 -5.632812 4 -5.515625 4.59375 -5.390625 C 5.269531 -5.242188 5.828125 -5.085938 6.265625 -4.921875 C 6.710938 -4.753906 7.097656 -4.492188 7.421875 -4.140625 C 7.742188 -3.785156 7.90625 -3.300781 7.90625 -2.6875 C 7.90625 -2.15625 7.757812 -1.671875 7.46875 -1.234375 C 7.175781 -0.804688 6.734375 -0.460938 6.140625 -0.203125 C 5.554688 0.046875 4.84375 0.171875 4 0.171875 Z M 4 0.171875 "/></g></g></g><g fill="#000000" fill-opacity="1"><g transform="translate(464.236571, 214.424968)"><g><path d="M 2.765625 -6.859375 L 0.046875 -6.859375 L 0.046875 -8.84375 L 7.96875 -8.84375 L 7.96875 -6.859375 L 5.265625 -6.859375 L 5.265625 0 L 2.765625 0 Z M 2.765625 -6.859375 "/></g></g></g><g fill="#000000" fill-opacity="1"><g transform="translate(476.736308, 214.424968)"><g><path d="M 7.984375 -1.9375 L 7.984375 0 L 0.890625 0 L 0.890625 -8.84375 L 7.828125 -8.84375 L 7.828125 -6.921875 L 3.359375 -6.921875 L 3.359375 -5.421875 L 7.296875 -5.421875 L 7.296875 -3.546875 L 3.359375 -3.546875 L 3.359375 -1.9375 Z M 7.984375 -1.9375 "/></g></g></g><g fill="#000000" fill-opacity="1"><g transform="translate(489.703678, 214.424968)"><g><path d="M 4.75 -2.34375 L 3.390625 -2.34375 L 3.390625 0 L 0.890625 0 L 0.890625 -8.84375 L 4.9375 -8.84375 C 5.726562 -8.84375 6.421875 -8.707031 7.015625 -8.4375 C 7.609375 -8.175781 8.0625 -7.800781 8.375 -7.3125 C 8.695312 -6.820312 8.859375 -6.242188 8.859375 -5.578125 C 8.859375 -4.929688 8.707031 -4.367188 8.40625 -3.890625 C 8.113281 -3.421875 7.6875 -3.050781 7.125 -2.78125 L 9.03125 0 L 6.359375 0 Z M 6.328125 -5.578125 C 6.328125 -5.984375 6.195312 -6.300781 5.9375 -6.53125 C 5.675781 -6.757812 5.289062 -6.875 4.78125 -6.875 L 3.390625 -6.875 L 3.390625 -4.28125 L 4.78125 -4.28125 C 5.289062 -4.28125 5.675781 -4.390625 5.9375 -4.609375 C 6.195312 -4.835938 6.328125 -5.160156 6.328125 -5.578125 Z M 6.328125 -5.578125 "/></g></g></g><g fill="#000000" fill-opacity="1"><g transform="translate(510.331036, 133.609872)"><g><path d="M 10.484375 -13.078125 L 10.484375 -10.90625 L 6.71875 -10.90625 L 6.71875 0 L 4.140625 0 L 4.140625 -10.90625 L 0.359375 -10.90625 L 0.359375 -13.078125 Z M 10.484375 -13.078125 "/></g></g><g transform="translate(521.181762, 133.609872)"><g><path d="M 4.078125 0 L 1.703125 0 L 1.703125 -13.078125 L 5.078125 -13.078125 L 8.390625 -3.46875 L 8.578125 -3.46875 L 11.875 -13.078125 L 15.171875 -13.078125 L 15.171875 0 L 12.71875 0 L 12.71875 -8.640625 L 12.5 -8.6875 L 9.484375 0 L 7.328125 0 L 4.296875 -8.6875 L 4.078125 -8.640625 Z M 4.078125 0 "/></g></g></g></svg>