<svg xmlns="http://www.w3.org/2000/svg" xmlns:xlink="http://www.w3.org/1999/xlink" width="800" zoomAndPan="magnify" viewBox="0 0 600 359.999987" height="480" preserveAspectRatio="xMidYMid meet" version="1.0"><defs><g/></defs><rect x="-60" width="720" fill="#ffffff" y="-35.999999" height="431.999984" fill-opacity="1"/><rect x="-60" width="720" fill="#ffffff" y="-35.999999" height="431.999984" fill-opacity="1"/><g fill="#00afef" fill-opacity="1"><g transform="translate(16.822743, 205.044241)"><g><path d="M 30.078125 -14.828125 L 24.6875 -14.828125 L 24.6875 0 L 4.796875 0 L 4.796875 -58.984375 L 33.203125 -58.984375 C 38.648438 -58.984375 43.394531 -58.082031 47.4375 -56.28125 C 51.488281 -54.488281 54.609375 -51.90625 56.796875 -48.53125 C 58.984375 -45.164062 60.078125 -41.234375 60.078125 -36.734375 C 60.078125 -32.523438 59.117188 -28.847656 57.203125 -25.703125 C 55.296875 -22.554688 52.546875 -20.054688 48.953125 -18.203125 L 61.34375 0 L 40.109375 0 Z M 40.03125 -36.734375 C 40.03125 -38.929688 39.351562 -40.632812 38 -41.84375 C 36.65625 -43.050781 34.632812 -43.65625 31.9375 -43.65625 L 24.6875 -43.65625 L 24.6875 -29.828125 L 31.9375 -29.828125 C 34.632812 -29.828125 36.65625 -30.429688 38 -31.640625 C 39.351562 -32.847656 40.03125 -34.546875 40.03125 -36.734375 Z M 40.03125 -36.734375 "/></g></g></g><g fill="#00afef" fill-opacity="1"><g transform="translate(76.98248, 205.044241)"><g><path d="M 53.25 -23.09375 C 53.25 -22.8125 53.164062 -21.320312 53 -18.625 L 20.984375 -18.625 C 21.660156 -16.882812 22.785156 -15.550781 24.359375 -14.625 C 25.929688 -13.695312 27.894531 -13.234375 30.25 -13.234375 C 32.269531 -13.234375 33.96875 -13.484375 35.34375 -13.984375 C 36.71875 -14.492188 38.222656 -15.363281 39.859375 -16.59375 L 49.796875 -6.578125 C 45.304688 -1.628906 38.59375 0.84375 29.65625 0.84375 C 24.09375 0.84375 19.203125 -0.179688 14.984375 -2.234375 C 10.773438 -4.285156 7.519531 -7.132812 5.21875 -10.78125 C 2.914062 -14.4375 1.765625 -18.539062 1.765625 -23.09375 C 1.765625 -27.695312 2.898438 -31.8125 5.171875 -35.4375 C 7.453125 -39.0625 10.570312 -41.882812 14.53125 -43.90625 C 18.5 -45.925781 22.953125 -46.9375 27.890625 -46.9375 C 32.554688 -46.9375 36.8125 -46.007812 40.65625 -44.15625 C 44.507812 -42.300781 47.570312 -39.578125 49.84375 -35.984375 C 52.113281 -32.390625 53.25 -28.09375 53.25 -23.09375 Z M 28.0625 -33.953125 C 26.09375 -33.953125 24.460938 -33.414062 23.171875 -32.34375 C 21.878906 -31.28125 21.035156 -29.769531 20.640625 -27.8125 L 35.46875 -27.8125 C 35.082031 -29.71875 34.242188 -31.21875 32.953125 -32.3125 C 31.660156 -33.40625 30.03125 -33.953125 28.0625 -33.953125 Z M 28.0625 -33.953125 "/></g></g></g><g fill="#000000" fill-opacity="1"><g transform="translate(129.39305, 205.044241)"><g><path d="M 24.6875 -43.984375 L 24.6875 -33.875 L 49.296875 -33.875 L 49.296875 -18.875 L 24.6875 -18.875 L 24.6875 0 L 4.796875 0 L 4.796875 -58.984375 L 52.75 -58.984375 L 52.75 -43.984375 Z M 24.6875 -43.984375 "/></g></g></g><g fill="#000000" fill-opacity="1"><g transform="translate(181.042744, 205.044241)"><g><path d="M 4.21875 -62.53125 L 23.25 -62.53125 L 23.25 0 L 4.21875 0 Z M 4.21875 -62.53125 "/></g></g></g><g fill="#000000" fill-opacity="1"><g transform="translate(205.898446, 205.044241)"><g><path d="M 28.5625 0.84375 C 23.445312 0.84375 18.851562 -0.179688 14.78125 -2.234375 C 10.707031 -4.285156 7.519531 -7.117188 5.21875 -10.734375 C 2.914062 -14.359375 1.765625 -18.476562 1.765625 -23.09375 C 1.765625 -27.695312 2.914062 -31.8125 5.21875 -35.4375 C 7.519531 -39.0625 10.707031 -41.882812 14.78125 -43.90625 C 18.851562 -45.925781 23.445312 -46.9375 28.5625 -46.9375 C 33.726562 -46.9375 38.347656 -45.925781 42.421875 -43.90625 C 46.492188 -41.882812 49.664062 -39.0625 51.9375 -35.4375 C 54.21875 -31.8125 55.359375 -27.695312 55.359375 -23.09375 C 55.359375 -18.476562 54.21875 -14.359375 51.9375 -10.734375 C 49.664062 -7.117188 46.492188 -4.285156 42.421875 -2.234375 C 38.347656 -0.179688 33.726562 0.84375 28.5625 0.84375 Z M 28.5625 -13.984375 C 30.757812 -13.984375 32.554688 -14.785156 33.953125 -16.390625 C 35.359375 -17.992188 36.0625 -20.226562 36.0625 -23.09375 C 36.0625 -25.957031 35.359375 -28.175781 33.953125 -29.75 C 32.554688 -31.320312 30.757812 -32.109375 28.5625 -32.109375 C 26.375 -32.109375 24.578125 -31.320312 23.171875 -29.75 C 21.765625 -28.175781 21.0625 -25.957031 21.0625 -23.09375 C 21.0625 -20.226562 21.765625 -17.992188 23.171875 -16.390625 C 24.578125 -14.785156 26.375 -13.984375 28.5625 -13.984375 Z M 28.5625 -13.984375 "/></g></g></g><g fill="#000000" fill-opacity="1"><g transform="translate(260.412899, 205.044241)"><g><path d="M 82.828125 -46.09375 L 66.828125 0 L 48.28125 0 L 41.296875 -21.3125 L 34.046875 0 L 15.5 0 L -0.5 -46.09375 L 17.53125 -46.09375 L 25.453125 -21.734375 L 33.703125 -46.09375 L 49.890625 -46.09375 L 57.890625 -21.484375 L 66.15625 -46.09375 Z M 82.828125 -46.09375 "/></g></g></g><g fill="#000000" fill-opacity="1"><g transform="translate(340.120466, 205.044241)"><g/></g></g><g fill="#000000" fill-opacity="1"><g transform="translate(362.785465, 205.044241)"><g><path d="M 17.609375 -43.5625 L 0.34375 -43.5625 L 0.34375 -58.984375 L 54.765625 -58.984375 L 54.765625 -43.5625 L 37.5 -43.5625 L 37.5 0 L 17.609375 0 Z M 17.609375 -43.5625 "/></g></g></g><g fill="#000000" fill-opacity="1"><g transform="translate(415.277748, 205.044241)"><g><path d="M 53.25 -23.09375 C 53.25 -22.8125 53.164062 -21.320312 53 -18.625 L 20.984375 -18.625 C 21.660156 -16.882812 22.785156 -15.550781 24.359375 -14.625 C 25.929688 -13.695312 27.894531 -13.234375 30.25 -13.234375 C 32.269531 -13.234375 33.96875 -13.484375 35.34375 -13.984375 C 36.71875 -14.492188 38.222656 -15.363281 39.859375 -16.59375 L 49.796875 -6.578125 C 45.304688 -1.628906 38.59375 0.84375 29.65625 0.84375 C 24.09375 0.84375 19.203125 -0.179688 14.984375 -2.234375 C 10.773438 -4.285156 7.519531 -7.132812 5.21875 -10.78125 C 2.914062 -14.4375 1.765625 -18.539062 1.765625 -23.09375 C 1.765625 -27.695312 2.898438 -31.8125 5.171875 -35.4375 C 7.453125 -39.0625 10.570312 -41.882812 14.53125 -43.90625 C 18.5 -45.925781 22.953125 -46.9375 27.890625 -46.9375 C 32.554688 -46.9375 36.8125 -46.007812 40.65625 -44.15625 C 44.507812 -42.300781 47.570312 -39.578125 49.84375 -35.984375 C 52.113281 -32.390625 53.25 -28.09375 53.25 -23.09375 Z M 28.0625 -33.953125 C 26.09375 -33.953125 24.460938 -33.414062 23.171875 -32.34375 C 21.878906 -31.28125 21.035156 -29.769531 20.640625 -27.8125 L 35.46875 -27.8125 C 35.082031 -29.71875 34.242188 -31.21875 32.953125 -32.3125 C 31.660156 -33.40625 30.03125 -33.953125 28.0625 -33.953125 Z M 28.0625 -33.953125 "/></g></g></g><g fill="#000000" fill-opacity="1"><g transform="translate(467.685756, 205.044241)"><g><path d="M 28.984375 0.84375 C 23.765625 0.84375 19.085938 -0.164062 14.953125 -2.1875 C 10.828125 -4.207031 7.597656 -7.039062 5.265625 -10.6875 C 2.929688 -14.34375 1.765625 -18.476562 1.765625 -23.09375 C 1.765625 -27.695312 2.929688 -31.8125 5.265625 -35.4375 C 7.597656 -39.0625 10.828125 -41.882812 14.953125 -43.90625 C 19.085938 -45.925781 23.765625 -46.9375 28.984375 -46.9375 C 34.597656 -46.9375 39.398438 -45.726562 43.390625 -43.3125 C 47.378906 -40.894531 50.132812 -37.550781 51.65625 -33.28125 L 36.90625 -26.03125 C 35.113281 -30.082031 32.445312 -32.109375 28.90625 -32.109375 C 26.65625 -32.109375 24.785156 -31.320312 23.296875 -29.75 C 21.804688 -28.175781 21.0625 -25.957031 21.0625 -23.09375 C 21.0625 -20.164062 21.804688 -17.914062 23.296875 -16.34375 C 24.785156 -14.769531 26.65625 -13.984375 28.90625 -13.984375 C 32.445312 -13.984375 35.113281 -16.007812 36.90625 -20.0625 L 51.65625 -12.8125 C 50.132812 -8.539062 47.378906 -5.195312 43.390625 -2.78125 C 39.398438 -0.363281 34.597656 0.84375 28.984375 0.84375 Z M 28.984375 0.84375 "/></g></g></g><g fill="#000000" fill-opacity="1"><g transform="translate(516.891983, 205.044241)"><g><path d="M 36.234375 -46.9375 C 41.910156 -46.9375 46.472656 -45.222656 49.921875 -41.796875 C 53.378906 -38.367188 55.109375 -33.203125 55.109375 -26.296875 L 55.109375 0 L 36.0625 0 L 36.0625 -23 C 36.0625 -28.28125 34.179688 -30.921875 30.421875 -30.921875 C 28.285156 -30.921875 26.554688 -30.175781 25.234375 -28.6875 C 23.910156 -27.195312 23.25 -24.851562 23.25 -21.65625 L 23.25 0 L 4.21875 0 L 4.21875 -62.53125 L 23.25 -62.53125 L 23.25 -42.390625 C 26.789062 -45.421875 31.117188 -46.9375 36.234375 -46.9375 Z M 36.234375 -46.9375 "/></g></g></g><g fill="#000000" fill-opacity="1"><g transform="translate(126.560868, 241.243107)"><g><path d="M 5.09375 0.21875 C 4.175781 0.21875 3.285156 0.109375 2.421875 -0.109375 C 1.566406 -0.335938 0.875 -0.640625 0.34375 -1.015625 L 1.390625 -3.375 C 1.890625 -3.039062 2.472656 -2.769531 3.140625 -2.5625 C 3.804688 -2.351562 4.460938 -2.25 5.109375 -2.25 C 6.335938 -2.25 6.953125 -2.554688 6.953125 -3.171875 C 6.953125 -3.492188 6.773438 -3.734375 6.421875 -3.890625 C 6.078125 -4.046875 5.515625 -4.210938 4.734375 -4.390625 C 3.890625 -4.566406 3.179688 -4.757812 2.609375 -4.96875 C 2.035156 -5.175781 1.546875 -5.507812 1.140625 -5.96875 C 0.734375 -6.4375 0.53125 -7.066406 0.53125 -7.859375 C 0.53125 -8.546875 0.71875 -9.164062 1.09375 -9.71875 C 1.46875 -10.269531 2.03125 -10.707031 2.78125 -11.03125 C 3.53125 -11.351562 4.445312 -11.515625 5.53125 -11.515625 C 6.269531 -11.515625 7 -11.429688 7.71875 -11.265625 C 8.4375 -11.097656 9.070312 -10.851562 9.625 -10.53125 L 8.640625 -8.15625 C 7.566406 -8.738281 6.523438 -9.03125 5.515625 -9.03125 C 4.878906 -9.03125 4.414062 -8.9375 4.125 -8.75 C 3.832031 -8.5625 3.6875 -8.316406 3.6875 -8.015625 C 3.6875 -7.710938 3.859375 -7.484375 4.203125 -7.328125 C 4.546875 -7.179688 5.101562 -7.03125 5.875 -6.875 C 6.726562 -6.6875 7.4375 -6.488281 8 -6.28125 C 8.570312 -6.070312 9.0625 -5.738281 9.46875 -5.28125 C 9.882812 -4.820312 10.09375 -4.203125 10.09375 -3.421875 C 10.09375 -2.742188 9.90625 -2.128906 9.53125 -1.578125 C 9.15625 -1.035156 8.585938 -0.597656 7.828125 -0.265625 C 7.078125 0.0546875 6.164062 0.21875 5.09375 0.21875 Z M 5.09375 0.21875 "/></g></g></g><g fill="#000000" fill-opacity="1"><g transform="translate(142.693083, 241.243107)"><g><path d="M 11.3125 0 L 11.28125 -5.984375 L 8.390625 -1.109375 L 6.96875 -1.109375 L 4.078125 -5.828125 L 4.078125 0 L 1.125 0 L 1.125 -11.28125 L 3.75 -11.28125 L 7.71875 -4.765625 L 11.59375 -11.28125 L 14.21875 -11.28125 L 14.25 0 Z M 11.3125 0 "/></g></g></g><g fill="#000000" fill-opacity="1"><g transform="translate(163.772074, 241.243107)"><g><path d="M 8.6875 -2.1875 L 3.921875 -2.1875 L 3.03125 0 L -0.21875 0 L 4.75 -11.28125 L 7.90625 -11.28125 L 12.90625 0 L 9.578125 0 Z M 7.75 -4.546875 L 6.3125 -8.15625 L 4.859375 -4.546875 Z M 7.75 -4.546875 "/></g></g></g><g fill="#000000" fill-opacity="1"><g transform="translate(182.144034, 241.243107)"><g><path d="M 6.0625 -3 L 4.328125 -3 L 4.328125 0 L 1.125 0 L 1.125 -11.28125 L 6.28125 -11.28125 C 7.3125 -11.28125 8.203125 -11.109375 8.953125 -10.765625 C 9.703125 -10.429688 10.28125 -9.953125 10.6875 -9.328125 C 11.09375 -8.703125 11.296875 -7.960938 11.296875 -7.109375 C 11.296875 -6.296875 11.101562 -5.582031 10.71875 -4.96875 C 10.34375 -4.363281 9.800781 -3.890625 9.09375 -3.546875 L 11.53125 0 L 8.109375 0 Z M 8.078125 -7.109375 C 8.078125 -7.640625 7.910156 -8.046875 7.578125 -8.328125 C 7.242188 -8.617188 6.75 -8.765625 6.09375 -8.765625 L 4.328125 -8.765625 L 4.328125 -5.46875 L 6.09375 -5.46875 C 6.75 -5.46875 7.242188 -5.609375 7.578125 -5.890625 C 7.910156 -6.179688 8.078125 -6.585938 8.078125 -7.109375 Z M 8.078125 -7.109375 "/></g></g></g><g fill="#000000" fill-opacity="1"><g transform="translate(199.774784, 241.243107)"><g><path d="M 3.53125 -8.75 L 0.0625 -8.75 L 0.0625 -11.28125 L 10.171875 -11.28125 L 10.171875 -8.75 L 6.71875 -8.75 L 6.71875 0 L 3.53125 0 Z M 3.53125 -8.75 "/></g></g></g><g fill="#000000" fill-opacity="1"><g transform="translate(215.713639, 241.243107)"><g><path d="M 10.1875 -2.46875 L 10.1875 0 L 1.125 0 L 1.125 -11.28125 L 9.984375 -11.28125 L 9.984375 -8.828125 L 4.296875 -8.828125 L 4.296875 -6.921875 L 9.296875 -6.921875 L 9.296875 -4.53125 L 4.296875 -4.53125 L 4.296875 -2.46875 Z M 10.1875 -2.46875 "/></g></g></g><g fill="#000000" fill-opacity="1"><g transform="translate(232.248685, 241.243107)"><g><path d="M 6.0625 -3 L 4.328125 -3 L 4.328125 0 L 1.125 0 L 1.125 -11.28125 L 6.28125 -11.28125 C 7.3125 -11.28125 8.203125 -11.109375 8.953125 -10.765625 C 9.703125 -10.429688 10.28125 -9.953125 10.6875 -9.328125 C 11.09375 -8.703125 11.296875 -7.960938 11.296875 -7.109375 C 11.296875 -6.296875 11.101562 -5.582031 10.71875 -4.96875 C 10.34375 -4.363281 9.800781 -3.890625 9.09375 -3.546875 L 11.53125 0 L 8.109375 0 Z M 8.078125 -7.109375 C 8.078125 -7.640625 7.910156 -8.046875 7.578125 -8.328125 C 7.242188 -8.617188 6.75 -8.765625 6.09375 -8.765625 L 4.328125 -8.765625 L 4.328125 -5.46875 L 6.09375 -5.46875 C 6.75 -5.46875 7.242188 -5.609375 7.578125 -5.890625 C 7.910156 -6.179688 8.078125 -6.585938 8.078125 -7.109375 Z M 8.078125 -7.109375 "/></g></g></g><g fill="#000000" fill-opacity="1"><g transform="translate(249.87944, 241.243107)"><g/></g></g><g fill="#000000" fill-opacity="1"><g transform="translate(260.275321, 241.243107)"><g><path d="M 9.796875 -5.890625 C 10.441406 -5.660156 10.945312 -5.304688 11.3125 -4.828125 C 11.6875 -4.347656 11.875 -3.769531 11.875 -3.09375 C 11.875 -2.101562 11.472656 -1.335938 10.671875 -0.796875 C 9.878906 -0.265625 8.726562 0 7.21875 0 L 1.125 0 L 1.125 -11.28125 L 6.90625 -11.28125 C 8.34375 -11.28125 9.4375 -11.015625 10.1875 -10.484375 C 10.9375 -9.953125 11.3125 -9.238281 11.3125 -8.34375 C 11.3125 -7.800781 11.179688 -7.316406 10.921875 -6.890625 C 10.660156 -6.460938 10.285156 -6.128906 9.796875 -5.890625 Z M 4.296875 -8.984375 L 4.296875 -6.8125 L 6.484375 -6.8125 C 7.554688 -6.8125 8.09375 -7.175781 8.09375 -7.90625 C 8.09375 -8.625 7.554688 -8.984375 6.484375 -8.984375 Z M 6.96875 -2.3125 C 8.082031 -2.3125 8.640625 -2.691406 8.640625 -3.453125 C 8.640625 -4.210938 8.082031 -4.59375 6.96875 -4.59375 L 4.296875 -4.59375 L 4.296875 -2.3125 Z M 6.96875 -2.3125 "/></g></g></g><g fill="#000000" fill-opacity="1"><g transform="translate(278.373349, 241.243107)"><g><path d="M 10.1875 -2.46875 L 10.1875 0 L 1.125 0 L 1.125 -11.28125 L 9.984375 -11.28125 L 9.984375 -8.828125 L 4.296875 -8.828125 L 4.296875 -6.921875 L 9.296875 -6.921875 L 9.296875 -4.53125 L 4.296875 -4.53125 L 4.296875 -2.46875 Z M 10.1875 -2.46875 "/></g></g></g><g fill="#000000" fill-opacity="1"><g transform="translate(294.90839, 241.243107)"><g><path d="M 3.53125 -8.75 L 0.0625 -8.75 L 0.0625 -11.28125 L 10.171875 -11.28125 L 10.171875 -8.75 L 6.71875 -8.75 L 6.71875 0 L 3.53125 0 Z M 3.53125 -8.75 "/></g></g></g><g fill="#000000" fill-opacity="1"><g transform="translate(310.847239, 241.243107)"><g><path d="M 3.53125 -8.75 L 0.0625 -8.75 L 0.0625 -11.28125 L 10.171875 -11.28125 L 10.171875 -8.75 L 6.71875 -8.75 L 6.71875 0 L 3.53125 0 Z M 3.53125 -8.75 "/></g></g></g><g fill="#000000" fill-opacity="1"><g transform="translate(326.786089, 241.243107)"><g><path d="M 10.1875 -2.46875 L 10.1875 0 L 1.125 0 L 1.125 -11.28125 L 9.984375 -11.28125 L 9.984375 -8.828125 L 4.296875 -8.828125 L 4.296875 -6.921875 L 9.296875 -6.921875 L 9.296875 -4.53125 L 4.296875 -4.53125 L 4.296875 -2.46875 Z M 10.1875 -2.46875 "/></g></g></g><g fill="#000000" fill-opacity="1"><g transform="translate(343.321129, 241.243107)"><g><path d="M 6.0625 -3 L 4.328125 -3 L 4.328125 0 L 1.125 0 L 1.125 -11.28125 L 6.28125 -11.28125 C 7.3125 -11.28125 8.203125 -11.109375 8.953125 -10.765625 C 9.703125 -10.429688 10.28125 -9.953125 10.6875 -9.328125 C 11.09375 -8.703125 11.296875 -7.960938 11.296875 -7.109375 C 11.296875 -6.296875 11.101562 -5.582031 10.71875 -4.96875 C 10.34375 -4.363281 9.800781 -3.890625 9.09375 -3.546875 L 11.53125 0 L 8.109375 0 Z M 8.078125 -7.109375 C 8.078125 -7.640625 7.910156 -8.046875 7.578125 -8.328125 C 7.242188 -8.617188 6.75 -8.765625 6.09375 -8.765625 L 4.328125 -8.765625 L 4.328125 -5.46875 L 6.09375 -5.46875 C 6.75 -5.46875 7.242188 -5.609375 7.578125 -5.890625 C 7.910156 -6.179688 8.078125 -6.585938 8.078125 -7.109375 Z M 8.078125 -7.109375 "/></g></g></g><g fill="#000000" fill-opacity="1"><g transform="translate(360.951872, 241.243107)"><g/></g></g><g fill="#000000" fill-opacity="1"><g transform="translate(371.347753, 241.243107)"><g><path d="M 4.328125 -8.828125 L 4.328125 -6.34375 L 9.296875 -6.34375 L 9.296875 -3.875 L 4.328125 -3.875 L 4.328125 0 L 1.125 0 L 1.125 -11.28125 L 9.984375 -11.28125 L 9.984375 -8.828125 Z M 4.328125 -8.828125 "/></g></g></g><g fill="#000000" fill-opacity="1"><g transform="translate(387.399395, 241.243107)"><g><path d="M 8.6875 -2.1875 L 3.921875 -2.1875 L 3.03125 0 L -0.21875 0 L 4.75 -11.28125 L 7.90625 -11.28125 L 12.90625 0 L 9.578125 0 Z M 7.75 -4.546875 L 6.3125 -8.15625 L 4.859375 -4.546875 Z M 7.75 -4.546875 "/></g></g></g><g fill="#000000" fill-opacity="1"><g transform="translate(405.77135, 241.243107)"><g><path d="M 5.09375 0.21875 C 4.175781 0.21875 3.285156 0.109375 2.421875 -0.109375 C 1.566406 -0.335938 0.875 -0.640625 0.34375 -1.015625 L 1.390625 -3.375 C 1.890625 -3.039062 2.472656 -2.769531 3.140625 -2.5625 C 3.804688 -2.351562 4.460938 -2.25 5.109375 -2.25 C 6.335938 -2.25 6.953125 -2.554688 6.953125 -3.171875 C 6.953125 -3.492188 6.773438 -3.734375 6.421875 -3.890625 C 6.078125 -4.046875 5.515625 -4.210938 4.734375 -4.390625 C 3.890625 -4.566406 3.179688 -4.757812 2.609375 -4.96875 C 2.035156 -5.175781 1.546875 -5.507812 1.140625 -5.96875 C 0.734375 -6.4375 0.53125 -7.066406 0.53125 -7.859375 C 0.53125 -8.546875 0.71875 -9.164062 1.09375 -9.71875 C 1.46875 -10.269531 2.03125 -10.707031 2.78125 -11.03125 C 3.53125 -11.351562 4.445312 -11.515625 5.53125 -11.515625 C 6.269531 -11.515625 7 -11.429688 7.71875 -11.265625 C 8.4375 -11.097656 9.070312 -10.851562 9.625 -10.53125 L 8.640625 -8.15625 C 7.566406 -8.738281 6.523438 -9.03125 5.515625 -9.03125 C 4.878906 -9.03125 4.414062 -8.9375 4.125 -8.75 C 3.832031 -8.5625 3.6875 -8.316406 3.6875 -8.015625 C 3.6875 -7.710938 3.859375 -7.484375 4.203125 -7.328125 C 4.546875 -7.179688 5.101562 -7.03125 5.875 -6.875 C 6.726562 -6.6875 7.4375 -6.488281 8 -6.28125 C 8.570312 -6.070312 9.0625 -5.738281 9.46875 -5.28125 C 9.882812 -4.820312 10.09375 -4.203125 10.09375 -3.421875 C 10.09375 -2.742188 9.90625 -2.128906 9.53125 -1.578125 C 9.15625 -1.035156 8.585938 -0.597656 7.828125 -0.265625 C 7.078125 0.0546875 6.164062 0.21875 5.09375 0.21875 Z M 5.09375 0.21875 "/></g></g></g><g fill="#000000" fill-opacity="1"><g transform="translate(421.903558, 241.243107)"><g><path d="M 3.53125 -8.75 L 0.0625 -8.75 L 0.0625 -11.28125 L 10.171875 -11.28125 L 10.171875 -8.75 L 6.71875 -8.75 L 6.71875 0 L 3.53125 0 Z M 3.53125 -8.75 "/></g></g></g><g fill="#000000" fill-opacity="1"><g transform="translate(437.842407, 241.243107)"><g><path d="M 10.1875 -2.46875 L 10.1875 0 L 1.125 0 L 1.125 -11.28125 L 9.984375 -11.28125 L 9.984375 -8.828125 L 4.296875 -8.828125 L 4.296875 -6.921875 L 9.296875 -6.921875 L 9.296875 -4.53125 L 4.296875 -4.53125 L 4.296875 -2.46875 Z M 10.1875 -2.46875 "/></g></g></g><g fill="#000000" fill-opacity="1"><g transform="translate(454.377448, 241.243107)"><g><path d="M 6.0625 -3 L 4.328125 -3 L 4.328125 0 L 1.125 0 L 1.125 -11.28125 L 6.28125 -11.28125 C 7.3125 -11.28125 8.203125 -11.109375 8.953125 -10.765625 C 9.703125 -10.429688 10.28125 -9.953125 10.6875 -9.328125 C 11.09375 -8.703125 11.296875 -7.960938 11.296875 -7.109375 C 11.296875 -6.296875 11.101562 -5.582031 10.71875 -4.96875 C 10.34375 -4.363281 9.800781 -3.890625 9.09375 -3.546875 L 11.53125 0 L 8.109375 0 Z M 8.078125 -7.109375 C 8.078125 -7.640625 7.910156 -8.046875 7.578125 -8.328125 C 7.242188 -8.617188 6.75 -8.765625 6.09375 -8.765625 L 4.328125 -8.765625 L 4.328125 -5.46875 L 6.09375 -5.46875 C 6.75 -5.46875 7.242188 -5.609375 7.578125 -5.890625 C 7.910156 -6.179688 8.078125 -6.585938 8.078125 -7.109375 Z M 8.078125 -7.109375 "/></g></g></g><g fill="#000000" fill-opacity="1"><g transform="translate(571.902647, 132.285177)"><g><path d="M 10.484375 -13.078125 L 10.484375 -10.90625 L 6.71875 -10.90625 L 6.71875 0 L 4.140625 0 L 4.140625 -10.90625 L 0.359375 -10.90625 L 0.359375 -13.078125 Z M 10.484375 -13.078125 "/></g></g><g transform="translate(582.753373, 132.285177)"><g><path d="M 4.078125 0 L 1.703125 0 L 1.703125 -13.078125 L 5.078125 -13.078125 L 8.390625 -3.46875 L 8.578125 -3.46875 L 11.875 -13.078125 L 15.171875 -13.078125 L 15.171875 0 L 12.71875 0 L 12.71875 -8.640625 L 12.5 -8.6875 L 9.484375 0 L 7.328125 0 L 4.296875 -8.6875 L 4.078125 -8.640625 Z M 4.078125 0 "/></g></g></g></svg>